<svg xmlns="http://www.w3.org/2000/svg" viewBox="0 0 444.28 106.08"><defs><style>.cls-1{fill:#f0b323;}.cls-2{fill:#6335cc;}</style></defs><g id="Capa_2" data-name="Capa 2"><g id="Capa_3" data-name="Capa 3"><path class="cls-1" d="M159.76,67a1.85,1.85,0,0,0-1.41.65,55.82,55.82,0,0,1-85,0A1.86,1.86,0,0,0,71.91,67H53.39a1.87,1.87,0,0,0-1.6,2.83,74.65,74.65,0,0,0,128.08,0A1.86,1.86,0,0,0,178.28,67Z"/><path class="cls-1" d="M121.21,31.48V5.65c0-2.92,1.59-4.52,4.51-4.52h8.58c2.92,0,4.51,1.6,4.51,4.52v27c0,6.81,4.25,11.32,10.44,11.32s10.44-4.51,10.44-11.32v-27c0-2.92,1.59-4.52,4.51-4.52h8.32c3,0,4.6,1.6,4.6,4.52V31.48c0,17-11.15,28.22-27.87,28.22S121.21,48.46,121.21,31.48Z"/><path class="cls-2" d="M183.84,54.12V5.65c0-2.92,1.59-4.52,4.51-4.52h8.58c2.92,0,4.51,1.6,4.51,4.52V44.39h17.34c2.92,0,4.51,1.6,4.51,4.51v5.22c0,2.92-1.59,4.52-4.51,4.52H188.35C185.43,58.64,183.84,57,183.84,54.12Z"/><path class="cls-2" d="M223.12,31.48V5.65c0-2.92,1.59-4.52,4.51-4.52h8.58c2.92,0,4.51,1.6,4.51,4.52v27C240.72,39.44,245,44,251.16,44s10.44-4.51,10.44-11.32v-27c0-2.92,1.59-4.52,4.51-4.52h8.32c3,0,4.6,1.6,4.6,4.52V31.48c0,17-11.15,28.22-27.87,28.22S223.12,48.46,223.12,31.48Z"/><path class="cls-2" d="M298.58,54.12V15.38h-13c-2.91,0-4.51-1.6-4.51-4.52V5.65c0-2.92,1.6-4.52,4.51-4.52h43.62c2.92,0,4.51,1.6,4.51,4.52v5.21c0,2.92-1.59,4.52-4.51,4.52h-13V54.12c0,2.92-1.59,4.52-4.51,4.52h-8.58C300.17,58.64,298.58,57,298.58,54.12Z"/><path class="cls-2" d="M335.91,31.48V5.65c0-2.92,1.59-4.52,4.51-4.52H349c2.92,0,4.51,1.6,4.51,4.52v27C353.51,39.44,357.76,44,364,44s10.44-4.51,10.44-11.32v-27c0-2.92,1.59-4.52,4.51-4.52h8.32c3,0,4.6,1.6,4.6,4.52V31.48c0,17-11.15,28.22-27.87,28.22S335.91,48.46,335.91,31.48Z"/><path class="cls-2" d="M396.68,51.82c-2.29-1.94-2.74-4.15-.88-6.37l3.72-4.6c1.94-2.21,4.07-2.56,6.37-.88,3.45,2.56,8.93,5,13.35,5,4.25,0,6.9-1.33,6.9-3.45,0-3.09-3.8-3.27-9.46-4.86-8.94-2.48-19.38-7.43-19.38-18.85C397.3,7.33,406.77.07,420.48.07A33.1,33.1,0,0,1,440.3,6.26c2.39,1.86,3.09,4,1.24,6.29L438,17c-1.86,2.3-4.07,2.56-6.37.88-2.74-1.94-6.46-4-10.79-4-3.37,0-5.49,1.24-5.49,3.19,0,2.83,4,4.15,7.79,5.22,9.9,2.83,21.14,6.19,21.14,19.28,0,11.94-11.15,18.14-24,18.14C410.57,59.7,402.17,56.51,396.68,51.82Z"/><path class="cls-1" d="M84.54,0a29.89,29.89,0,1,0,29.89,29.89A29.89,29.89,0,0,0,84.54,0Zm0,43.7A13.81,13.81,0,1,1,98.35,29.89,13.81,13.81,0,0,1,84.54,43.7Z"/><path class="cls-2" d="M51.19,54.12,33.59,26.61l17-21c2.21-2.66.62-4.52-2.39-4.52H36.51c-3,0-4.43,1.86-6.55,4.52L15.46,23.46V3.53A3.35,3.35,0,0,0,12.1.17H3.36A3.35,3.35,0,0,0,0,3.53v51.7a3.35,3.35,0,0,0,3.36,3.36H12.1a3.35,3.35,0,0,0,3.36-3.36V30.58L31,54.12c1.77,2.92,3.36,4.51,6.46,4.51H48.8C51.81,58.63,53.05,57,51.19,54.12Z"/></g></g></svg>