<?xml version="1.0" standalone="no"?>
<!DOCTYPE svg PUBLIC "-//W3C//DTD SVG 20010904//EN"
 "http://www.w3.org/TR/2001/REC-SVG-20010904/DTD/svg10.dtd">
<svg version="1.0" xmlns="http://www.w3.org/2000/svg"
 width="512.000000pt" height="200.000000pt" viewBox="0 0 512.000000 200.000000"
 preserveAspectRatio="xMidYMid meet">

<g transform="translate(0.000000,200.000000) scale(0.100000,-0.100000)"
fill="#000000" stroke="none">
<path d="M880 1290 c0 -340 2 -390 15 -390 13 0 15 50 15 390 0 340 -2 390
-15 390 -13 0 -15 -50 -15 -390z"/>
<path d="M3245 1450 l-29 -30 30 0 c19 0 43 11 64 30 l35 29 -36 1 c-26 0 -42
-7 -64 -30z"/>
<path d="M1082 1448 c2 -7 29 -88 59 -180 l54 -168 41 0 41 0 22 63 c13 34 30
88 39 120 9 31 19 57 23 57 8 0 19 -30 56 -148 l28 -93 43 3 43 3 54 165 c30
91 55 171 55 178 0 7 -13 12 -34 12 -33 0 -34 -1 -55 -72 -30 -97 -53 -161
-61 -171 -4 -4 -25 48 -47 115 l-41 123 -37 0 -37 0 -41 -122 c-23 -68 -44
-119 -48 -115 -7 7 -20 43 -59 170 l-23 72 -39 0 c-28 0 -39 -4 -36 -12z"/>
<path d="M2730 1458 c0 -2 -1 -83 -3 -181 l-2 -177 38 0 37 0 0 113 1 112 32
-35 c17 -20 60 -70 95 -113 52 -65 67 -77 92 -77 l30 0 0 180 0 180 -35 0 -35
0 0 -110 c0 -60 -3 -110 -8 -110 -4 0 -13 9 -19 19 -7 11 -46 60 -88 110 -64
76 -81 91 -106 91 -16 0 -29 -1 -29 -2z"/>
<path d="M3685 1446 c-68 -34 -105 -89 -105 -158 0 -93 49 -158 138 -184 58
-17 94 -13 160 18 l42 20 0 69 0 69 -40 0 -40 0 0 -55 c0 -54 0 -54 -34 -61
-83 -15 -146 36 -146 118 0 41 5 54 28 78 40 40 88 47 145 22 l45 -20 22 23
21 23 -33 23 c-41 30 -155 38 -203 15z"/>
<path d="M2360 1406 c0 -28 -4 -35 -22 -38 -17 -2 -24 -11 -26 -30 -3 -24 0
-28 22 -28 25 0 26 -1 26 -70 0 -74 17 -123 45 -134 23 -8 87 -7 102 2 7 4 10
17 7 29 -4 16 -15 23 -38 25 l-31 3 -3 73 -3 72 31 0 c27 0 30 3 30 30 0 27
-3 30 -29 30 -26 0 -30 4 -33 33 -3 29 -6 32 -40 35 -37 3 -38 3 -38 -32z"/>
<path d="M4330 1406 c0 -28 -4 -35 -22 -38 -17 -2 -24 -11 -26 -30 -3 -24 0
-28 22 -28 25 0 26 -2 26 -67 0 -90 7 -111 41 -128 32 -17 105 -20 114 -5 13
22 -6 50 -34 50 -41 0 -51 17 -51 87 l0 63 35 0 c32 0 35 2 35 30 0 28 -3 30
-35 30 -33 0 -35 2 -35 35 0 33 -2 35 -35 35 -33 0 -35 -2 -35 -34z"/>
<path d="M1722 1371 c-47 -12 -56 -24 -42 -51 8 -15 17 -19 28 -14 37 16 83
16 107 0 44 -29 31 -43 -45 -48 -86 -6 -110 -24 -110 -79 0 -29 6 -42 26 -58
32 -25 101 -28 130 -6 25 19 34 19 34 0 0 -10 10 -15 30 -15 l30 0 0 100 c0
105 -9 138 -41 159 -27 16 -105 22 -147 12z m118 -168 c0 -9 -7 -25 -17 -35
-26 -29 -93 -21 -93 11 0 28 21 41 67 41 34 0 43 -4 43 -17z"/>
<path d="M2097 1361 c-29 -15 -37 -16 -37 -5 0 9 -11 14 -30 14 l-30 0 0 -135
0 -135 35 0 35 0 0 88 c0 100 12 122 68 122 48 0 62 -29 62 -127 l0 -83 35 0
35 0 0 88 c0 120 -12 160 -55 178 -46 19 -74 18 -118 -5z"/>
<path d="M4072 1373 c-33 -6 -88 -66 -96 -103 -14 -70 34 -150 100 -166 39
-10 124 1 141 18 20 21 0 63 -25 52 -9 -4 -36 -9 -59 -12 -32 -3 -46 1 -62 17
-12 12 -21 26 -21 31 0 6 42 10 106 10 l107 0 -7 42 c-14 84 -88 129 -184 111z
m77 -58 c29 -14 45 -38 34 -49 -4 -3 -35 -6 -70 -6 -46 0 -63 4 -63 13 0 19
34 47 68 56 2 1 16 -6 31 -14z"/>
<path d="M4420 730 c0 -5 5 -10 11 -10 5 0 7 5 4 10 -3 6 -8 10 -11 10 -2 0
-4 -4 -4 -10z"/>
<path d="M480 665 c0 -37 4 -65 10 -65 6 0 10 28 10 65 0 37 -4 65 -10 65 -6
0 -10 -28 -10 -65z"/>
<path d="M1590 709 c0 -17 -4 -20 -22 -16 -46 12 -79 -33 -51 -72 10 -16 24
-20 54 -19 l39 1 0 64 c0 35 -4 63 -10 63 -5 0 -10 -10 -10 -21z m-5 -50 c8
-26 -16 -54 -39 -46 -16 6 -22 48 -9 60 14 14 42 6 48 -14z"/>
<path d="M4620 665 c0 -37 4 -65 10 -65 6 0 10 28 10 65 0 37 -4 65 -10 65 -6
0 -10 -28 -10 -65z"/>
<path d="M206 705 c-9 -25 4 -43 35 -50 56 -13 43 -51 -14 -40 -17 3 -26 1
-22 -5 10 -16 71 -12 85 5 10 13 10 19 -5 35 -9 10 -27 20 -39 22 -35 5 -26
33 12 33 17 0 32 3 32 7 0 15 -78 8 -84 -7z"/>
<path d="M1876 698 c-22 -30 -20 -54 5 -79 23 -23 80 -23 87 1 5 13 3 13 -11
1 -37 -30 -87 11 -72 59 8 25 50 37 70 20 12 -10 15 -9 15 4 0 27 -75 22 -94
-6z"/>
<path d="M3030 708 c0 -10 -6 -18 -12 -18 -10 0 -10 -2 -1 -8 6 -4 13 -23 15
-42 2 -29 7 -35 28 -37 14 -1 18 0 8 3 -13 4 -18 16 -18 40 0 25 4 34 18 35
13 0 14 2 2 6 -8 4 -20 13 -27 22 -11 14 -12 14 -13 -1z"/>
<path d="M3340 660 l0 -60 48 1 47 2 -40 6 c-31 5 -40 10 -40 26 0 15 9 22 35
26 l35 6 -37 2 c-31 1 -38 5 -38 20 0 16 8 21 43 24 l42 4 -47 1 -48 2 0 -60z"/>
<path d="M363 689 c-26 -9 -32 -56 -11 -77 19 -19 55 -14 72 9 28 41 -12 86
-61 68z m51 -31 c13 -22 -14 -54 -38 -45 -16 6 -22 48 -9 61 11 11 35 3 47
-16z"/>
<path d="M630 662 c0 -66 -56 -69 -63 -4 -4 30 -4 29 -3 -8 l1 -45 43 -3 42
-3 0 45 c0 25 -4 48 -10 51 -6 4 -10 -10 -10 -33z"/>
<path d="M723 688 c-28 -13 -33 -72 -7 -82 23 -9 52 -7 59 3 3 6 -6 9 -21 8
-34 -3 -53 25 -34 48 9 10 22 14 37 10 26 -6 32 9 7 19 -9 3 -16 6 -17 5 -1 0
-12 -5 -24 -11z"/>
<path d="M922 687 c-18 -8 -22 -17 -20 -40 4 -36 26 -52 61 -43 30 7 43 37 28
64 -13 25 -40 32 -69 19z m52 -29 c13 -22 -14 -54 -38 -45 -16 6 -22 48 -9 61
11 11 35 3 47 -16z"/>
<path d="M1081 691 c-8 -5 -20 -7 -28 -4 -10 4 -13 -7 -13 -41 0 -52 17 -63
22 -15 4 38 33 62 48 39 5 -8 10 -27 10 -42 0 -16 5 -28 11 -28 16 0 4 80 -13
91 -16 11 -20 11 -37 0z"/>
<path d="M1200 680 c-25 -25 -25 -42 -2 -63 20 -18 57 -23 66 -8 3 4 -5 6 -17
4 -14 -3 -29 2 -36 11 -12 14 -9 16 28 16 47 0 55 19 19 44 -29 20 -34 20 -58
-4z m58 -17 c2 -8 -6 -13 -22 -13 -17 0 -26 5 -26 16 0 19 41 16 48 -3z"/>
<path d="M1338 689 c-27 -15 -21 -39 12 -50 17 -6 30 -16 30 -21 0 -6 -13 -8
-30 -6 -16 3 -30 1 -30 -4 0 -5 17 -8 37 -6 50 4 59 35 14 44 -39 8 -41 34 -3
34 21 0 24 2 12 10 -18 12 -21 12 -42 -1z"/>
<path d="M1670 680 c-11 -11 -20 -26 -20 -33 0 -34 69 -63 85 -37 4 7 -2 9
-17 5 -16 -4 -29 -1 -37 9 -12 14 -8 16 28 16 47 0 55 19 19 44 -29 20 -34 20
-58 -4z m58 -17 c2 -8 -6 -13 -22 -13 -17 0 -26 5 -26 16 0 19 41 16 48 -3z"/>
<path d="M2132 684 c-24 -17 -29 -53 -10 -72 15 -15 68 -16 68 -1 0 5 -5 7
-10 4 -13 -8 -50 4 -50 16 0 5 16 9 35 9 28 0 35 4 35 20 0 10 -9 24 -19 30
-25 13 -22 13 -49 -6z m56 -21 c2 -9 -7 -13 -27 -13 -30 0 -39 9 -24 24 11 10
46 3 51 -11z"/>
<path d="M2272 684 c-26 -18 -30 -69 -6 -78 23 -9 52 -7 59 3 3 6 -6 9 -21 8
-34 -3 -53 25 -34 48 9 10 22 14 37 10 26 -6 32 9 7 19 -20 8 -16 9 -42 -10z"/>
<path d="M2483 693 c-20 -4 -23 -10 -21 -51 1 -35 2 -39 5 -15 2 17 11 37 20
44 13 11 17 10 29 -6 8 -10 14 -29 14 -42 0 -38 19 -26 22 15 2 29 7 37 23 37
16 0 21 -9 26 -40 l6 -40 2 41 c1 49 -17 71 -46 55 -12 -6 -25 -6 -34 0 -7 5
-16 8 -19 7 -3 0 -15 -3 -27 -5z"/>
<path d="M2768 693 c-22 -5 -35 -50 -21 -72 10 -17 73 -28 73 -14 0 5 -12 9
-27 8 -14 0 -28 6 -30 13 -3 8 7 12 32 12 28 0 36 4 33 16 -4 22 -38 42 -60
37z m40 -30 c2 -8 -6 -13 -22 -13 -17 0 -26 5 -26 16 0 19 41 16 48 -3z"/>
<path d="M2880 648 c0 -27 5 -48 10 -48 6 0 10 16 10 35 0 24 5 38 16 42 22 8
45 -23 40 -54 -3 -13 0 -23 5 -23 13 0 11 77 -2 85 -6 4 -26 8 -45 9 l-34 1 0
-47z"/>
<path d="M3143 689 c-30 -11 -39 -46 -17 -70 23 -25 59 -24 78 2 28 41 -12 86
-61 68z m51 -31 c8 -14 7 -21 -6 -34 -30 -30 -75 9 -48 42 16 18 39 15 54 -8z"/>
<path d="M3503 693 c-20 -4 -23 -10 -22 -51 1 -45 1 -46 9 -14 10 41 24 57 44
49 10 -4 16 -19 16 -42 0 -47 18 -45 22 3 2 29 7 37 23 37 16 0 21 -8 23 -37
4 -50 22 -49 22 2 0 47 -26 68 -61 49 -15 -8 -24 -8 -32 0 -6 6 -13 10 -16 10
-4 -1 -16 -4 -28 -6z"/>
<path d="M3702 630 c1 -41 3 -62 5 -47 4 22 8 27 24 22 37 -12 59 4 59 41 0
27 -5 37 -22 43 -13 5 -30 5 -40 0 -11 -6 -18 -5 -21 4 -3 6 -5 -22 -5 -63z
m69 29 c9 -17 8 -25 -4 -37 -29 -28 -73 12 -47 43 17 21 37 19 51 -6z"/>
<path d="M3952 684 c-24 -17 -29 -53 -10 -72 15 -15 68 -16 68 -1 0 5 -5 7
-10 4 -13 -8 -50 4 -50 16 0 5 16 9 35 9 28 0 35 4 35 20 0 10 -9 24 -19 30
-25 13 -22 13 -49 -6z m48 -19 c0 -9 -9 -15 -25 -15 -24 0 -32 10 -18 23 12
13 43 7 43 -8z"/>
<path d="M4088 693 c-11 -3 -18 -14 -18 -27 0 -18 7 -25 31 -30 39 -7 28 -30
-12 -24 -18 3 -26 1 -21 -4 5 -5 22 -8 38 -6 37 4 41 39 6 48 -34 7 -32 24 3
30 25 5 27 7 12 13 -10 4 -19 6 -20 6 -1 -1 -10 -3 -19 -6z"/>
<path d="M4203 693 c-22 -8 -14 -19 14 -18 14 0 28 -6 30 -12 3 -8 -5 -13 -20
-13 -27 0 -52 -23 -42 -39 3 -6 24 -10 47 -9 l40 1 -5 40 c-3 21 -7 40 -9 42
-8 7 -44 13 -55 8z m45 -65 c-7 -20 -48 -23 -48 -4 0 11 9 16 26 16 16 0 24
-5 22 -12z"/>
<path d="M4508 693 c-27 -7 -21 -19 9 -18 14 0 28 -6 30 -12 3 -8 -5 -13 -20
-13 -27 0 -52 -23 -42 -40 3 -5 24 -10 46 -10 38 0 39 1 39 34 0 19 -7 42 -16
50 -16 17 -17 17 -46 9z m40 -65 c-5 -15 -48 -24 -48 -10 0 14 12 22 33 22 10
0 17 -5 15 -12z"/>
<path d="M830 645 c0 -25 5 -45 10 -45 6 0 10 20 10 45 0 25 -4 45 -10 45 -5
0 -10 -20 -10 -45z"/>
<path d="M2020 645 c0 -25 5 -45 10 -45 6 0 10 13 10 29 0 20 8 35 22 45 22
16 22 16 -10 16 -31 0 -32 -1 -32 -45z"/>
<path d="M2380 645 c0 -25 5 -45 10 -45 6 0 10 20 10 45 0 25 -4 45 -10 45 -5
0 -10 -20 -10 -45z"/>
<path d="M2670 645 c0 -25 5 -45 10 -45 6 0 10 20 10 45 0 25 -4 45 -10 45 -5
0 -10 -20 -10 -45z"/>
<path d="M3840 644 c0 -24 5 -44 10 -44 6 0 10 14 10 31 0 18 7 37 17 44 15
11 14 13 -10 13 -25 0 -27 -3 -27 -44z"/>
<path d="M4320 644 c0 -24 5 -44 10 -44 6 0 10 12 10 27 0 14 7 34 15 43 15
16 14 18 -10 18 -23 0 -25 -4 -25 -44z"/>
<path d="M4423 645 c0 -27 2 -38 4 -22 2 15 2 37 0 50 -2 12 -4 0 -4 -28z"/>
</g>
</svg>
